# Blender 4.3.0
# www.blender.org
mtllib bowl007.mtl
o Cube.007
v -0.394768 -0.270000 0.394768
v -0.573900 0.355114 0.695193
v 0.394768 -0.270000 0.394768
v 0.573900 0.355114 0.695193
v -0.375970 -0.256061 0.375971
v -0.546572 0.353899 0.662089
v 0.375969 -0.256061 0.375971
v 0.546571 0.353899 0.662089
vn -0.0000 -0.4332 0.9013
vn -0.0000 -0.4247 0.9053
vn -0.0000 0.9993 -0.0367
vt 0.156008 0.718992
vt 0.343992 0.718992
vt 0.343992 0.750000
vt 0.156008 0.750000
s 0
f 1/1/1 3/2/1 4/3/1 2/4/1
f 5/1/2 7/2/2 8/3/2 6/4/2
f 2/4/3 4/3/3 8/3/3 6/4/3
