# Blender 4.3.0
# www.blender.org
mtllib bowl_full.mtl
o Cube.009
v 0.394768 -0.270000 0.394768
v 0.695194 0.355114 0.573900
v 0.394768 -0.270000 -0.394768
v 0.695194 0.355114 -0.573900
v 0.375969 -0.256061 0.375971
v 0.662089 0.353899 0.546572
v 0.375969 -0.256061 -0.375969
v 0.662089 0.353899 -0.546570
v -0.394768 -0.270000 0.394768
v -0.394768 -0.270000 -0.394768
v 0.394768 -0.270000 0.394768
v 0.394768 -0.270000 -0.394768
v -0.375970 -0.256061 0.375971
v -0.375970 -0.256061 -0.375969
v 0.375969 -0.256061 0.375971
v 0.375969 -0.256061 -0.375969
v 0.394768 -0.270000 -0.394768
v 0.573900 0.355114 -0.695193
v 0.695194 0.355114 -0.573900
v 0.375969 -0.256061 -0.375969
v 0.546571 0.353899 -0.662088
v 0.662089 0.353899 -0.546571
v 0.634543 0.355114 -0.634550
v 0.619066 0.354491 -0.619072
v 0.604327 0.353899 -0.604333
v -0.394768 -0.270000 -0.394768
v -0.573900 0.355114 -0.695193
v 0.394768 -0.270000 -0.394768
v 0.573900 0.355114 -0.695193
v -0.375970 -0.256061 -0.375969
v -0.546572 0.353899 -0.662088
v 0.375969 -0.256061 -0.375969
v 0.546571 0.353899 -0.662088
v -0.394768 -0.270000 -0.394768
v -0.695193 0.355114 -0.573900
v -0.573900 0.355114 -0.695193
v -0.375970 -0.256061 -0.375969
v -0.662089 0.353899 -0.546571
v -0.546572 0.353899 -0.662088
v -0.394768 -0.270000 0.394768
v -0.695193 0.355114 0.573900
v -0.394768 -0.270000 -0.394768
v -0.695193 0.355114 -0.573900
v -0.375970 -0.256061 0.375971
v -0.662089 0.353899 0.546572
v -0.375970 -0.256061 -0.375969
v -0.662089 0.353899 -0.546571
v -0.394768 -0.270000 0.394768
v -0.573900 0.355114 0.695193
v -0.695193 0.355114 0.573900
v -0.375970 -0.256061 0.375971
v -0.546572 0.353899 0.662090
v -0.662089 0.353899 0.546572
v -0.394768 -0.270000 0.394768
v -0.573900 0.355114 0.695193
v 0.394768 -0.270000 0.394768
v 0.573900 0.355114 0.695193
v -0.375970 -0.256061 0.375971
v -0.546572 0.353899 0.662090
v 0.375969 -0.256061 0.375971
v 0.546571 0.353899 0.662090
v 0.394768 -0.270000 0.394768
v 0.695194 0.355114 0.573900
v 0.573900 0.355114 0.695193
v 0.375969 -0.256061 0.375971
v 0.662089 0.353899 0.546572
v 0.546571 0.353899 0.662090
vn 0.9013 -0.4332 -0.0000
vn 0.9053 -0.4247 -0.0000
vn -0.0367 0.9993 -0.0000
vn -0.0000 -1.0000 -0.0000
vn 0.6215 -0.4768 -0.6215
vn 0.6249 -0.4679 -0.6249
vn -0.0201 0.9996 0.0201
vn -0.0000 -0.4332 -0.9013
vn -0.0000 -0.4247 -0.9053
vn -0.0000 0.9993 0.0367
vn -0.6215 -0.4768 -0.6215
vn -0.6249 -0.4679 -0.6249
vn 0.0201 0.9996 0.0201
vn -0.9013 -0.4332 -0.0000
vn -0.9053 -0.4247 -0.0000
vn 0.0367 0.9993 -0.0000
vn -0.6215 -0.4768 0.6215
vn -0.6249 -0.4679 0.6249
vn 0.0201 0.9996 -0.0201
vn -0.0000 -0.4332 0.9013
vn -0.0000 -0.4247 0.9053
vn -0.0000 0.9993 -0.0367
vn 0.6215 -0.4768 0.6215
vn 0.6249 -0.4679 0.6249
vn -0.0201 0.9996 -0.0201
vt 0.343992 0.718992
vt 0.343992 0.531008
vt 0.406008 0.531008
vt 0.406008 0.718992
vt 0.375000 0.718992
vt 0.156008 0.531008
vt 0.156008 0.718992
vt 0.343992 0.500000
vt 0.359495 0.515503
vt 0.359495 0.515503
vt 0.374998 0.515503
vt 0.374242 0.515125
vt 0.374998 0.515503
vt 0.375000 0.531008
vt 0.156008 0.500000
vt 0.125000 0.531008
vt 0.125000 0.718992
vt 0.156008 0.750000
vt 0.343992 0.750000
s 0
f 1/1/1 3/2/1 4/3/1 2/4/1
f 5/1/2 7/2/2 8/3/2 6/4/2
f 2/5/3 4/3/3 8/3/3 6/5/3
f 10/6/4 12/2/4 11/1/4 9/7/4
f 14/6/4 16/2/4 15/1/4 13/7/4
f 17/2/5 18/8/5 23/9/5
f 20/2/6 21/8/6 25/10/6
f 23/11/7 18/8/7 21/8/7 24/12/7
f 25/13/7 24/12/7 21/8/7
f 22/3/7 19/3/7 24/12/7 25/13/7
f 19/3/7 23/11/7 24/12/7
f 22/14/6 20/2/6 25/10/6
f 19/14/5 17/2/5 23/9/5
f 28/2/8 26/6/8 27/15/8 29/8/8
f 32/2/9 30/6/9 31/15/9 33/8/9
f 29/8/10 27/15/10 31/15/10 33/8/10
f 34/6/11 35/16/11 36/15/11
f 37/6/12 38/16/12 39/15/12
f 36/15/13 35/16/13 38/16/13 39/15/13
f 42/6/14 40/7/14 41/17/14 43/16/14
f 46/6/15 44/7/15 45/17/15 47/16/15
f 43/16/16 41/17/16 45/17/16 47/16/16
f 48/7/17 49/18/17 50/17/17
f 51/7/18 52/18/18 53/17/18
f 50/17/19 49/18/19 52/18/19 53/17/19
f 54/7/20 56/1/20 57/19/20 55/18/20
f 58/7/21 60/1/21 61/19/21 59/18/21
f 55/18/22 57/19/22 61/19/22 59/18/22
f 62/1/23 63/5/23 64/19/23
f 65/1/24 66/5/24 67/19/24
f 64/19/25 63/5/25 66/5/25 67/19/25
