# Blender 4.3.0
# www.blender.org
mtllib bowl002.mtl
o Cube.002
v -0.394768 -0.270000 -0.394768
v -0.573900 0.355114 -0.695193
v 0.394768 -0.270000 -0.394768
v 0.573900 0.355114 -0.695193
v -0.375970 -0.256061 -0.375969
v -0.546572 0.353899 -0.662088
v 0.375969 -0.256061 -0.375969
v 0.546571 0.353899 -0.662088
vn -0.0000 -0.4332 -0.9013
vn -0.0000 -0.4247 -0.9053
vn -0.0000 0.9993 0.0367
vt 0.343992 0.531008
vt 0.156008 0.531008
vt 0.156008 0.500000
vt 0.343992 0.500000
s 0
f 3/1/1 1/2/1 2/3/1 4/4/1
f 7/1/2 5/2/2 6/3/2 8/4/2
f 4/4/3 2/3/3 6/3/3 8/4/3
