# Blender 4.3.0
# www.blender.org
mtllib bowl004.mtl
o Cube.004
v -0.394768 -0.270000 0.394768
v -0.695193 0.355114 0.573900
v -0.394768 -0.270000 -0.394768
v -0.695193 0.355114 -0.573900
v -0.375970 -0.256061 0.375971
v -0.662089 0.353899 0.546572
v -0.375970 -0.256061 -0.375969
v -0.662089 0.353899 -0.546570
vn -0.9013 -0.4332 -0.0000
vn -0.9053 -0.4247 -0.0000
vn 0.0367 0.9993 -0.0000
vt 0.156008 0.531008
vt 0.156008 0.718992
vt 0.125000 0.718992
vt 0.125000 0.531008
s 0
f 3/1/1 1/2/1 2/3/1 4/4/1
f 7/1/2 5/2/2 6/3/2 8/4/2
f 4/4/3 2/3/3 6/3/3 8/4/3
