# Blender 4.3.0
# www.blender.org
mtllib bowl001.mtl
o Cube.001
v 0.394768 -0.270000 -0.394768
v 0.573900 0.355114 -0.695193
v 0.695194 0.355114 -0.573900
v 0.375969 -0.256061 -0.375969
v 0.546571 0.353899 -0.662088
v 0.662089 0.353899 -0.546570
v 0.634543 0.355114 -0.634550
v 0.619065 0.354492 -0.619072
v 0.604326 0.353899 -0.604333
vn 0.6215 -0.4768 -0.6215
vn 0.6249 -0.4679 -0.6249
vn -0.0201 0.9996 0.0201
vt 0.343992 0.531008
vt 0.343992 0.500000
vt 0.359495 0.515503
vt 0.359495 0.515503
vt 0.374998 0.515503
vt 0.374242 0.515125
vt 0.374998 0.515503
vt 0.406008 0.531008
vt 0.375000 0.531008
s 0
f 1/1/1 2/2/1 7/3/1
f 4/1/2 5/2/2 9/4/2
f 7/5/3 2/2/3 5/2/3 8/6/3
f 9/7/3 8/6/3 5/2/3
f 6/8/3 3/8/3 8/6/3 9/7/3
f 3/8/3 7/5/3 8/6/3
f 6/9/2 4/1/2 9/4/2
f 3/9/1 1/1/1 7/3/1
