# Blender 4.3.0
# www.blender.org
mtllib bowl009.mtl
o Cube.009
v 0.394768 -0.270000 0.394768
v 0.695194 0.355114 0.573900
v 0.394768 -0.270000 -0.394768
v 0.695194 0.355114 -0.573900
v 0.375969 -0.256061 0.375971
v 0.662089 0.353899 0.546572
v 0.375969 -0.256061 -0.375969
v 0.662089 0.353899 -0.546570
vn 0.9013 -0.4332 -0.0000
vn 0.9053 -0.4247 -0.0000
vn -0.0367 0.9993 -0.0000
vt 0.343992 0.718992
vt 0.343992 0.531008
vt 0.406008 0.531008
vt 0.406008 0.718992
vt 0.375000 0.718992
s 0
f 1/1/1 3/2/1 4/3/1 2/4/1
f 5/1/2 7/2/2 8/3/2 6/4/2
f 2/5/3 4/3/3 8/3/3 6/5/3
