# Blender 4.3.0
# www.blender.org
o square_bowl.006
v -0.394772 -0.394780 -0.321385
v -0.573904 -0.695205 0.303728
v 0.394764 -0.394780 -0.321385
v 0.573896 -0.695205 0.303728
v -0.375974 -0.375983 -0.307446
v -0.546576 -0.662102 0.302514
v 0.375965 -0.375983 -0.307446
v 0.546567 -0.662102 0.302514
vn 0.6676 -0.7346 0.1216
vn 0.0160 -0.9594 -0.2816
vn -0.1290 -0.9285 -0.3482
vn -0.3534 -0.9351 -0.0260
vn 0.1365 0.2863 0.9484
vn 0.0897 0.2750 0.9572
vn -0.3022 0.8582 0.4150
vn 0.0904 0.8506 0.5179
vt 0.000000 0.000000
s 1
f 2/1/1 1/1/2 3/1/3 4/1/4
f 6/1/5 8/1/6 7/1/7 5/1/8
f 6/1/5 2/1/1 4/1/4 8/1/6
