# Blender 4.3.0
# www.blender.org
o square_bowl.002
v 0.394764 -0.394780 -0.321385
v 0.695189 -0.573912 0.303728
v 0.394764 0.394756 -0.321385
v 0.695189 0.573887 0.303728
v 0.375965 -0.375983 -0.307446
v 0.662084 -0.546585 0.302514
v 0.375965 0.375956 -0.307446
v 0.662084 0.546558 0.302514
vn 0.7345 0.6676 0.1217
vn 0.9539 0.0533 -0.2954
vn 0.9136 -0.1527 -0.3770
vn 0.9351 -0.3534 -0.0260
vn -0.2318 -0.0092 0.9727
vn -0.8030 -0.2429 0.5443
vn -0.7374 -0.0633 0.6725
vn -0.2604 0.0305 0.9650
vt 0.000000 0.000000
s 1
f 2/1/1 1/1/2 3/1/3 4/1/4
f 8/1/5 7/1/6 5/1/7 6/1/8
f 6/1/8 2/1/1 4/1/4 8/1/5
