# Blender 4.3.0
# www.blender.org
o square_bowl.000
v -0.394772 -0.394780 -0.321385
v -0.394772 0.394756 -0.321385
v 0.394764 -0.394780 -0.321385
v 0.394764 0.394756 -0.321385
v -0.375974 -0.375983 -0.307446
v -0.375974 0.375956 -0.307446
v 0.375965 -0.375983 -0.307446
v 0.375965 0.375956 -0.307446
vn 0.1552 0.0484 -0.9867
vn 0.0773 -0.1359 -0.9877
vn -0.1552 -0.0484 -0.9867
vn -0.0773 0.1359 -0.9877
vn 0.0961 0.1025 0.9901
vn -0.0097 0.3023 0.9532
vn -0.2538 -0.1329 0.9581
vn 0.0728 -0.2662 0.9612
vt 0.000000 0.000000
s 1
f 1/1/1 2/1/2 4/1/3 3/1/4
f 5/1/5 7/1/6 8/1/7 6/1/8
