# Blender 4.3.0
# www.blender.org
o square_bowl.005
v -0.394772 0.394756 -0.321385
v -0.573904 0.695181 0.303728
v 0.394764 0.394756 -0.321385
v 0.573896 0.695181 0.303728
v -0.375974 0.375956 -0.307446
v -0.546576 0.662075 0.302514
v 0.375965 0.375956 -0.307446
v 0.546567 0.662075 0.302514
vn -0.6676 0.7345 0.1216
vn -0.0160 0.9594 -0.2816
vn 0.1290 0.9285 -0.3482
vn 0.3534 0.9351 -0.0259
vn 0.0092 -0.2318 0.9727
vn 0.2629 -0.8345 0.4842
vn -0.0875 -0.7516 0.6538
vn -0.0305 -0.2604 0.9650
vt 0.000000 0.000000
s 1
f 4/1/1 3/1/2 1/1/3 2/1/4
f 6/1/5 5/1/6 7/1/7 8/1/8
f 8/1/8 4/1/1 2/1/4 6/1/5
