# Blender 4.3.0
# www.blender.org
o square_bowl.008
v -0.394772 -0.394780 -0.321385
v -0.695197 -0.573912 0.303728
v -0.394772 0.394756 -0.321385
v -0.695197 0.573887 0.303728
v -0.375974 -0.375983 -0.307446
v -0.662093 -0.546585 0.302514
v -0.375974 0.375956 -0.307446
v -0.662093 0.546558 0.302514
vn -0.7346 -0.6676 0.1216
vn -0.9539 -0.0533 -0.2954
vn -0.9136 0.1527 -0.3770
vn -0.9351 0.3534 -0.0260
vn 0.2318 0.0092 0.9727
vn 0.8479 0.0821 0.5237
vn 0.7532 -0.0168 0.6576
vn 0.2604 -0.0305 0.9650
vt 0.000000 0.000000
s 1
f 4/1/1 3/1/2 1/1/3 2/1/4
f 6/1/5 5/1/6 7/1/7 8/1/8
f 8/1/8 4/1/1 2/1/4 6/1/5
