# Blender 4.3.0
# www.blender.org
o square_bowl
v -0.394772 -0.394780 -0.321385
v -0.573904 -0.695205 0.303728
v -0.695197 -0.573912 0.303728
v -0.394772 0.394756 -0.321385
v -0.695197 0.573887 0.303728
v -0.573904 0.695181 0.303728
v 0.394764 -0.394780 -0.321385
v 0.695189 -0.573912 0.303728
v 0.573896 -0.695205 0.303728
v 0.394764 0.394756 -0.321385
v 0.573896 0.695181 0.303728
v 0.695189 0.573887 0.303728
v -0.375974 -0.375983 -0.307446
v -0.546576 -0.662102 0.302514
v -0.662093 -0.546585 0.302514
v -0.375974 0.375956 -0.307446
v -0.662093 0.546558 0.302514
v -0.546576 0.662075 0.302514
v 0.375965 -0.375983 -0.307446
v 0.662084 -0.546585 0.302514
v 0.546567 -0.662102 0.302514
v 0.375965 0.375956 -0.307446
v 0.546567 0.662075 0.302514
v 0.662084 0.546558 0.302514
vn -0.3084 -0.5928 -0.7440
vn -0.0210 -0.3324 0.9429
vn -0.6557 -0.0130 0.7549
vn -0.4732 0.2462 -0.8458
vn -0.3324 0.0210 0.9429
vn -0.0130 0.6557 0.7549
vn 0.4732 -0.2462 -0.8458
vn 0.3324 -0.0210 0.9429
vn 0.0130 -0.6557 0.7549
vn 0.3084 0.5928 -0.7440
vn 0.0210 0.3324 0.9429
vn 0.6557 0.0130 0.7549
vn 0.0305 0.2897 0.9566
vn 0.4915 0.4915 0.7189
vn 0.2939 0.0249 0.9555
vn 0.0249 -0.2939 0.9555
vn 0.4485 -0.0254 0.8934
vn 0.2474 -0.4769 0.8434
vn -0.3037 0.3037 0.9031
vn -0.0207 0.4516 0.8920
vn -0.4485 0.0254 0.8934
vn -0.0254 -0.4485 0.8934
vn -0.5977 -0.3101 0.7393
vn -0.2939 -0.0249 0.9555
vt 0.000000 0.000000
s 1
f 1/1/1 2/1/2 3/1/3
f 4/1/4 5/1/5 6/1/6
f 7/1/7 8/1/8 9/1/9
f 10/1/10 11/1/11 12/1/12
f 5/1/5 4/1/4 1/1/1 3/1/3
f 11/1/11 10/1/10 4/1/4 6/1/6
f 8/1/8 7/1/7 10/1/10 12/1/12
f 2/1/2 1/1/1 7/1/7 9/1/9
f 1/1/1 4/1/4 10/1/10 7/1/7
f 14/1/13 13/1/14 15/1/15
f 18/1/16 17/1/17 16/1/18
f 19/1/19 21/1/20 20/1/21
f 23/1/22 22/1/23 24/1/24
f 15/1/15 13/1/14 16/1/18 17/1/17
f 18/1/16 16/1/18 22/1/23 23/1/22
f 24/1/24 22/1/23 19/1/19 20/1/21
f 14/1/13 21/1/20 19/1/19 13/1/14
f 13/1/14 19/1/19 22/1/23 16/1/18
f 14/1/13 2/1/2 9/1/9 21/1/20
f 21/1/20 9/1/9 8/1/8 20/1/21
f 20/1/21 8/1/8 12/1/12 24/1/24
f 24/1/24 12/1/12 11/1/11 23/1/22
f 23/1/22 11/1/11 6/1/6 18/1/16
f 18/1/16 6/1/6 5/1/5 17/1/17
f 17/1/17 5/1/5 3/1/3 15/1/15
f 15/1/15 3/1/3 2/1/2 14/1/13
